<?xml version="1.0" encoding="UTF-8"?>
<svg xmlns="http://www.w3.org/2000/svg" viewBox="0 0 480 320" fill="none" stroke="#1F1B16" stroke-width="2.6" stroke-linecap="round" stroke-linejoin="round"><circle cx="58" cy="56" r="24"/><path d="M58 22 V12 M58 100 V90 M24 56 H14 M102 56 H92 M34 32 l-7 -7 M82 80 l7 7 M82 32 l7 -7 M34 80 l-7 7"/><circle cx="51" cy="52" r="2.2" fill="#1F1B16"/><circle cx="65" cy="52" r="2.2" fill="#1F1B16"/><path d="M51 63 q7 6 14 0"/><path d="M160 76 l3 7 l7 3 l-7 3 l-3 7 l-3 -7 l-7 -3 l7 -3z"/><path d="M430 120 l2.6 6 l6 2.6 l-6 2.6 l-2.6 6 l-2.6 -6 l-6 -2.6 l6 -2.6z"/><path d="M0 292 H480"/><ellipse cx="330" cy="210" rx="76" ry="66"/><circle cx="300" cy="228" r="10"/><circle cx="360" cy="228" r="10"/><circle cx="330" cy="118" r="46"/><circle cx="300" cy="84" r="16"/><circle cx="360" cy="84" r="16"/><ellipse cx="330" cy="132" rx="22" ry="16"/><ellipse cx="330" cy="122" rx="6" ry="5"/><circle cx="316" cy="104" r="3.4"/><circle cx="344" cy="104" r="3.4"/><path d="M312 236 q18 12 40 0"/><path d="M170 236 C 138 206 132 174 154 160 C 166 152 180 156 175 172 C 170 156 188 150 200 161 C 220 177 212 208 170 236 Z"/><circle cx="161" cy="184" r="3"/><circle cx="183" cy="184" r="3"/><path d="M163 196 q9 7 18 0"/><path d="M170 236 V258 M190 232 V254"/><path d="M204 182 q40 -6 66 22"/><path d="M150 200 q-6 24 20 40"/></svg>