<?xml version="1.0" encoding="UTF-8"?>
<svg xmlns="http://www.w3.org/2000/svg" viewBox="0 0 260 260"><path d="M80 54 V206" stroke="#e7e0cf" stroke-width="26" stroke-linecap="round" stroke-linejoin="round" fill="none"/><path d="M80 54 H140 Q172 54 172 92 Q172 128 80 128" stroke="#e7e0cf" stroke-width="26" stroke-linecap="round" stroke-linejoin="round" fill="none"/><path d="M80 128 H150 Q186 128 186 168 Q186 206 80 206" stroke="#e7e0cf" stroke-width="26" stroke-linecap="round" stroke-linejoin="round" fill="none"/><path d="M80 64 V196" stroke="#10b981" stroke-width="3.5" stroke-dasharray="1 10" stroke-linecap="round" fill="none"/><path d="M74 192 L80 208 L86 192 Z" fill="#10b981"/><path d="M84 54 H138 Q166 54 166 92 Q166 122 92 124" stroke="#10b981" stroke-width="3.5" stroke-dasharray="1 10" stroke-linecap="round" fill="none"/><path d="M100 118 L84 126 L98 132 Z" fill="#10b981"/><path d="M84 128 H148 Q180 128 180 168 Q180 200 92 202" stroke="#10b981" stroke-width="3.5" stroke-dasharray="1 10" stroke-linecap="round" fill="none"/><path d="M100 196 L84 204 L98 210 Z" fill="#10b981"/><circle cx="80" cy="54" r="13" fill="#047857"/><text x="80" y="59" text-anchor="middle" font-family="Arial" font-size="15" font-weight="bold" fill="#fff">1</text><circle cx="80" cy="128" r="13" fill="#10b981"/><text x="80" y="133" text-anchor="middle" font-family="Arial" font-size="15" font-weight="bold" fill="#fff">2</text></svg>