<?xml version="1.0" encoding="UTF-8"?>
<svg xmlns="http://www.w3.org/2000/svg" viewBox="0 0 260 260"><path d="M82 52 V206" stroke="#e7e0cf" stroke-width="26" stroke-linecap="round" stroke-linejoin="round" fill="none"/><path d="M82 160 Q82 206 132 206 Q182 206 182 178 Q182 150 132 150 Q82 150 82 160" stroke="#e7e0cf" stroke-width="26" stroke-linecap="round" stroke-linejoin="round" fill="none"/><path d="M82 62 V198" stroke="#10b981" stroke-width="3.5" stroke-dasharray="1 10" stroke-linecap="round" fill="none"/><path d="M76 194 L82 210 L88 194 Z" fill="#10b981"/><path d="M84 168 Q88 202 132 202 Q178 202 178 178 Q178 154 134 154 Q90 154 86 172" stroke="#10b981" stroke-width="3.5" stroke-dasharray="1 10" stroke-linecap="round" fill="none"/><path d="M92 166 L82 152 L98 152 Z" fill="#10b981"/><circle cx="82" cy="52" r="13" fill="#047857"/><text x="82" y="57" text-anchor="middle" font-family="Arial" font-size="15" font-weight="bold" fill="#fff">1</text><circle cx="82" cy="160" r="13" fill="#10b981"/><text x="82" y="165" text-anchor="middle" font-family="Arial" font-size="15" font-weight="bold" fill="#fff">2</text></svg>